<?xml version="1.0" standalone="no"?>
<!DOCTYPE svg PUBLIC "-//W3C//DTD SVG 20010904//EN"
 "http://www.w3.org/TR/2001/REC-SVG-20010904/DTD/svg10.dtd">
<svg version="1.0" xmlns="http://www.w3.org/2000/svg"
 width="2560.000000pt" height="1904.000000pt" viewBox="0 0 2560.000000 1904.000000"
 preserveAspectRatio="xMidYMid meet">

<g transform="translate(0.000000,1904.000000) scale(0.100000,-0.100000)"
fill="#000000" stroke="none">
<path d="M12190 18033 c-1459 -36 -3009 -530 -4535 -1446 -1559 -935 -3195
-2391 -4462 -3972 -222 -277 -250 -319 -274 -396 -33 -108 -25 -214 24 -311
94 -187 1032 -1175 1753 -1848 2145 -2000 4273 -3279 6112 -3676 653 -140
1222 -180 1831 -128 821 70 1662 298 2551 690 228 100 735 356 972 490 l206
117 -38 56 c-82 120 -151 288 -181 441 -7 36 -13 129 -13 208 -1 78 -2 142 -2
142 -1 0 -58 -33 -126 -74 -371 -221 -911 -496 -1283 -655 -1174 -501 -2216
-679 -3220 -551 -1236 158 -2634 779 -4128 1832 -275 194 -551 403 -862 652
-869 696 -1781 1555 -2562 2412 l-81 90 85 104 c509 626 1203 1352 1847 1934
1741 1572 3527 2564 5232 2906 798 160 1518 179 2209 60 2036 -353 4484 -1897
6850 -4320 242 -247 495 -518 495 -529 0 -33 -819 -903 -1177 -1250 l-186
-181 398 -195 c219 -107 403 -195 410 -195 31 0 812 820 1166 1225 326 372
366 433 376 566 6 86 -13 179 -52 245 -35 60 -267 323 -559 634 -49 52 -236
243 -415 423 -806 813 -1551 1468 -2371 2089 -1882 1423 -3636 2219 -5250
2383 -136 13 -598 38 -625 33 -5 -1 -57 -3 -115 -5z"/>
<path d="M11955 16609 c-1047 -48 -2033 -462 -2814 -1179 -315 -290 -635 -697
-852 -1085 -461 -826 -648 -1789 -528 -2725 145 -1138 730 -2183 1619 -2894
685 -549 1493 -876 2367 -961 276 -27 692 -20 968 16 868 112 1681 473 2341
1040 141 122 366 348 474 477 59 71 89 100 101 97 24 -8 1143 -555 1152 -564
4 -4 -30 -85 -77 -180 -97 -197 -117 -268 -117 -410 1 -115 18 -190 71 -296
69 -140 161 -232 310 -309 158 -82 3104 -1519 3190 -1556 112 -48 188 -69 298
-79 414 -38 899 185 1318 606 115 115 235 265 296 370 69 116 120 281 154 489
21 131 30 521 15 651 -54 458 -228 790 -511 977 -91 61 -3292 1620 -3381 1648
-105 32 -263 32 -369 -1 -124 -38 -206 -87 -296 -176 -74 -74 -87 -93 -163
-245 -46 -91 -84 -166 -86 -168 -2 -2 -1086 526 -1093 533 -2 2 14 62 37 132
83 261 143 527 183 826 20 143 23 205 23 537 0 331 -3 394 -22 536 -56 405
-144 748 -286 1109 -70 179 -254 541 -362 713 -291 464 -678 881 -1115 1204
-625 461 -1350 749 -2120 843 -105 12 -522 38 -555 33 -5 -1 -82 -4 -170 -9z
m435 -849 c1030 -77 1946 -555 2576 -1346 658 -825 921 -1922 708 -2949 -216
-1041 -873 -1931 -1797 -2433 -673 -366 -1454 -510 -2202 -406 -1152 160
-2159 867 -2690 1886 -355 684 -485 1439 -375 2188 152 1037 759 1965 1650
2523 624 391 1414 590 2130 537z"/>
<path d="M11195 14699 c75 -69 109 -153 155 -379 56 -276 91 -370 177 -461 67
-72 181 -107 272 -82 23 6 23 7 17 101 -10 125 -37 228 -88 332 -56 113 -56
112 -4 55 52 -58 120 -185 141 -265 20 -73 19 -216 -1 -296 -9 -35 -33 -98
-54 -139 -21 -41 -37 -75 -36 -75 10 0 111 139 140 191 118 215 96 497 -56
725 -118 176 -339 286 -661 329 l-48 6 46 -42z"/>
<path d="M13351 14109 c-310 -33 -675 -160 -926 -323 -368 -240 -651 -645
-776 -1112 -33 -124 -59 -261 -59 -311 l0 -32 217 -71 c119 -38 220 -70 224
-70 4 0 -1 25 -11 56 -38 110 -53 220 -47 354 11 281 118 496 358 724 300 285
578 449 852 501 110 21 287 18 287 -5 0 -4 -22 -10 -49 -13 -189 -22 -588
-231 -973 -509 l-46 -33 32 -45 c47 -65 152 -166 220 -212 303 -207 642 -155
989 151 232 204 595 329 1081 372 75 7 136 16 136 20 0 4 -33 37 -72 74 -396
367 -907 539 -1437 484z"/>
<path d="M10216 14085 c-186 -39 -360 -130 -476 -249 l-44 -46 59 0 c73 0 144
-18 230 -59 125 -58 217 -135 338 -281 198 -240 361 -368 535 -420 93 -28 217
-24 304 9 64 25 178 105 178 126 0 20 -107 157 -218 281 -101 112 -239 235
-324 289 -26 17 -47 33 -48 37 0 9 109 -31 171 -62 215 -110 412 -322 506
-544 40 -94 79 -231 89 -314 11 -93 20 -92 38 4 22 123 21 296 -4 409 -28 126
-109 286 -199 391 -157 183 -438 347 -716 415 -107 27 -324 34 -419 14z"/>
<path d="M14435 10070 c4 -6 11 -8 16 -5 14 9 11 15 -7 15 -8 0 -12 -5 -9 -10z"/>
<path d="M15454 5334 c107 -277 99 -642 -20 -974 -46 -126 -117 -274 -189
-390 -381 -620 -538 -981 -621 -1430 -26 -139 -26 -492 0 -610 34 -158 103
-317 184 -425 l37 -50 6 120 c32 613 463 1372 1137 2004 172 161 157 155 181
74 71 -240 109 -548 96 -786 l-7 -128 -42 6 c-110 17 -332 -45 -531 -148 -116
-61 -289 -166 -283 -173 2 -1 42 8 88 22 167 48 292 66 429 62 114 -3 131 -6
178 -31 33 -17 63 -42 80 -68 32 -49 32 -48 -63 -248 -119 -249 -268 -480
-429 -663 -47 -54 -84 -98 -82 -98 19 0 176 58 241 90 257 124 480 349 605
614 122 258 168 526 158 911 -20 737 -204 1343 -550 1805 -144 193 -379 407
-548 499 -52 29 -61 31 -55 15z"/>
</g>
</svg>
